<?xml version="1.0" encoding="utf-8" standalone="no"?>
<!DOCTYPE svg PUBLIC "-//W3C//DTD SVG 1.1//EN"
  "http://www.w3.org/Graphics/SVG/1.1/DTD/svg11.dtd">
<svg xmlns:xlink="http://www.w3.org/1999/xlink" width="432pt" height="324pt" viewBox="0 0 432 324" xmlns="http://www.w3.org/2000/svg" version="1.1">
 <metadata>
  <rdf:RDF xmlns:dc="http://purl.org/dc/elements/1.1/" xmlns:cc="http://creativecommons.org/ns#" xmlns:rdf="http://www.w3.org/1999/02/22-rdf-syntax-ns#">
   <cc:Work>
    <dc:type rdf:resource="http://purl.org/dc/dcmitype/StillImage"/>
    <dc:date>2026-09-08T01:34:42.404131</dc:date>
    <dc:format>image/svg+xml</dc:format>
    <dc:creator>
     <cc:Agent>
      <dc:title>Matplotlib v3.9.4, https://matplotlib.org/</dc:title>
     </cc:Agent>
    </dc:creator>
   </cc:Work>
  </rdf:RDF>
 </metadata>
 <defs>
  <style type="text/css">*{stroke-linejoin: round; stroke-linecap: butt}</style>
 </defs>
 <g id="figure_1">
  <g id="patch_1">
   <path d="M 0 324 
L 432 324 
L 432 0 
L 0 0 
z
" style="fill: #ffffff"/>
  </g>
  <g id="axes_1">
   <g id="patch_2">
    <path d="M 51.84 275.4 
L 406.08 275.4 
L 406.08 25.92 
L 51.84 25.92 
z
" style="fill: #ffffff"/>
   </g>
   <g id="matplotlib.axis_1">
    <g id="xtick_1">
     <g id="line2d_1">
      <defs>
       <path id="m76d397e72f" d="M 0 0 
L 0 3.5 
" style="stroke: #000000; stroke-width: 0.8"/>
      </defs>
      <g>
       <use xlink:href="#m76d397e72f" x="96.47455" y="128.647059" style="stroke: #000000; stroke-width: 0.8"/>
      </g>
     </g>
     <g id="text_1">
      <text style="font: 10px 'DejaVu Sans'; text-anchor: middle" x="96.47455" y="143.245496" transform="rotate(-0 96.47455 143.245496)">−π/2</text>
     </g>
    </g>
    <g id="xtick_2">
     <g id="line2d_2">
      <g>
       <use xlink:href="#m76d397e72f" x="361.44545" y="128.647059" style="stroke: #000000; stroke-width: 0.8"/>
      </g>
     </g>
     <g id="text_2">
      <text style="font: 10px 'DejaVu Sans'; text-anchor: middle" x="361.44545" y="143.245496" transform="rotate(-0 361.44545 143.245496)">π/2</text>
     </g>
    </g>
    <g id="text_3">
     <text style="fill: #29213f; font: 11px 'DejaVu Sans'; text-anchor: end" x="406.08" y="157.683465" transform="rotate(-0 406.08 157.683465)">x</text>
    </g>
   </g>
   <g id="matplotlib.axis_2">
    <g id="ytick_1">
     <g id="line2d_3">
      <defs>
       <path id="m77798c16f1" d="M 0 0 
L -3.5 0 
" style="stroke: #000000; stroke-width: 0.8"/>
      </defs>
      <g>
       <use xlink:href="#m77798c16f1" x="228.96" y="275.4" style="stroke: #000000; stroke-width: 0.8"/>
      </g>
     </g>
     <g id="text_4">
      <text style="font: 10px 'DejaVu Sans'; text-anchor: end" x="221.96" y="279.199219" transform="rotate(-0 221.96 279.199219)">−6</text>
     </g>
    </g>
    <g id="ytick_2">
     <g id="line2d_4">
      <g>
       <use xlink:href="#m77798c16f1" x="228.96" y="226.482353" style="stroke: #000000; stroke-width: 0.8"/>
      </g>
     </g>
     <g id="text_5">
      <text style="font: 10px 'DejaVu Sans'; text-anchor: end" x="221.96" y="230.281572" transform="rotate(-0 221.96 230.281572)">−4</text>
     </g>
    </g>
    <g id="ytick_3">
     <g id="line2d_5">
      <g>
       <use xlink:href="#m77798c16f1" x="228.96" y="177.564706" style="stroke: #000000; stroke-width: 0.8"/>
      </g>
     </g>
     <g id="text_6">
      <text style="font: 10px 'DejaVu Sans'; text-anchor: end" x="221.96" y="181.363925" transform="rotate(-0 221.96 181.363925)">−2</text>
     </g>
    </g>
    <g id="ytick_4">
     <g id="line2d_6">
      <g>
       <use xlink:href="#m77798c16f1" x="228.96" y="128.647059" style="stroke: #000000; stroke-width: 0.8"/>
      </g>
     </g>
     <g id="text_7">
      <text style="font: 10px 'DejaVu Sans'; text-anchor: end" x="221.96" y="132.446278" transform="rotate(-0 221.96 132.446278)">0</text>
     </g>
    </g>
    <g id="ytick_5">
     <g id="line2d_7">
      <g>
       <use xlink:href="#m77798c16f1" x="228.96" y="79.729412" style="stroke: #000000; stroke-width: 0.8"/>
      </g>
     </g>
     <g id="text_8">
      <text style="font: 10px 'DejaVu Sans'; text-anchor: end" x="221.96" y="83.528631" transform="rotate(-0 221.96 83.528631)">2</text>
     </g>
    </g>
    <g id="ytick_6">
     <g id="line2d_8">
      <g>
       <use xlink:href="#m77798c16f1" x="228.96" y="30.811765" style="stroke: #000000; stroke-width: 0.8"/>
      </g>
     </g>
     <g id="text_9">
      <text style="font: 10px 'DejaVu Sans'; text-anchor: end" x="221.96" y="34.610983" transform="rotate(-0 221.96 34.610983)">4</text>
     </g>
    </g>
    <g id="text_10">
     <text style="fill: #29213f; font: 11px 'DejaVu Sans'; text-anchor: end" x="203.217813" y="23.632344" transform="rotate(-0 203.217813 23.632344)">y</text>
    </g>
   </g>
   <g id="line2d_9">
    <path d="M 96.47455 250.941176 
L 100.449113 250.832567 
L 104.423677 250.50698 
L 108.39824 249.965138 
L 112.372804 249.208244 
L 116.347367 248.23798 
L 120.321931 247.056498 
L 124.296494 245.666422 
L 128.271058 244.070838 
L 132.908049 241.954337 
L 137.545039 239.569353 
L 142.18203 236.923093 
L 146.819021 234.023554 
L 151.456012 230.879497 
L 156.75543 226.999101 
L 162.054848 222.827081 
L 167.354266 218.379905 
L 173.316111 213.069824 
L 179.277956 207.46026 
L 185.902229 200.910285 
L 193.188928 193.366511 
L 201.138055 184.796438 
L 210.412037 174.447991 
L 222.335727 160.781951 
L 249.495245 129.520233 
L 258.769226 119.243418 
L 266.718353 110.755666 
L 274.005053 103.303666 
L 280.629326 96.850074 
L 286.591171 91.337296 
L 292.553016 86.133015 
L 297.852434 81.787022 
L 303.151852 77.722493 
L 308.45127 73.955467 
L 313.088261 70.915082 
L 317.725252 68.123063 
L 322.362242 65.587844 
L 326.999233 63.317089 
L 331.636224 61.317657 
L 335.610787 59.824413 
L 339.585351 58.538277 
L 343.559914 57.462105 
L 347.534478 56.598286 
L 351.509041 55.948738 
L 355.483605 55.514903 
L 359.458168 55.297744 
L 361.44545 55.270588 
L 361.44545 55.270588 
" clip-path="url(#pbc79f0385c)" style="fill: none; stroke: #08756f; stroke-width: 1.8; stroke-linecap: square"/>
   </g>
   <g id="line2d_10">
    <defs>
     <path id="mff56723f7c" d="M 0 2 
C 0.530406 2 1.03916 1.789267 1.414214 1.414214 
C 1.789267 1.03916 2 0.530406 2 0 
C 2 -0.530406 1.789267 -1.03916 1.414214 -1.414214 
C 1.03916 -1.789267 0.530406 -2 0 -2 
C -0.530406 -2 -1.03916 -1.789267 -1.414214 -1.414214 
C -1.789267 -1.03916 -2 -0.530406 -2 0 
C -2 0.530406 -1.789267 1.03916 -1.414214 1.414214 
C -1.03916 1.789267 -0.530406 2 0 2 
z
" style="stroke: #08756f"/>
    </defs>
    <g clip-path="url(#pbc79f0385c)">
     <use xlink:href="#mff56723f7c" x="96.47455" y="250.941176" style="fill: #08756f; stroke: #08756f"/>
    </g>
   </g>
   <g id="line2d_11">
    <g clip-path="url(#pbc79f0385c)">
     <use xlink:href="#mff56723f7c" x="228.96" y="153.105882" style="fill: #08756f; stroke: #08756f"/>
    </g>
   </g>
   <g id="line2d_12">
    <g clip-path="url(#pbc79f0385c)">
     <use xlink:href="#mff56723f7c" x="361.44545" y="55.270588" style="fill: #08756f; stroke: #08756f"/>
    </g>
   </g>
   <g id="patch_3">
    <path d="M 228.96 275.4 
L 228.96 25.92 
" style="fill: none; stroke: #29213f; stroke-width: 0.8; stroke-linejoin: miter; stroke-linecap: square"/>
   </g>
   <g id="patch_4">
    <path d="M 51.84 128.647059 
L 406.08 128.647059 
" style="fill: none; stroke: #29213f; stroke-width: 0.8; stroke-linejoin: miter; stroke-linecap: square"/>
   </g>
   <g id="text_11">
    <text style="fill: #29213f; font: 10px 'DejaVu Sans'; text-anchor: start" x="101.47455" y="270.941176" transform="rotate(-0 101.47455 270.941176)">(−π/2, −5)</text>
   </g>
   <g id="text_12">
    <text style="fill: #29213f; font: 10px 'DejaVu Sans'; text-anchor: start" x="238.96" y="168.105882" transform="rotate(-0 238.96 168.105882)">(0, −1)</text>
   </g>
   <g id="text_13">
    <text style="fill: #29213f; font: 10px 'DejaVu Sans'; text-anchor: start" x="341.44545" y="43.270588" transform="rotate(-0 341.44545 43.270588)">(π/2, 3)</text>
   </g>
  </g>
 </g>
 <defs>
  <clipPath id="pbc79f0385c">
   <rect x="51.84" y="25.92" width="354.24" height="249.48"/>
  </clipPath>
 </defs>
</svg>
